<?xml version="1.0" encoding="UTF-8" standalone="no"?>
<svg
   xmlns:dc="http://purl.org/dc/elements/1.1/"
   xmlns:cc="http://creativecommons.org/ns#"
   xmlns:rdf="http://www.w3.org/1999/02/22-rdf-syntax-ns#"
   xmlns:svg="http://www.w3.org/2000/svg"
   xmlns="http://www.w3.org/2000/svg"
   xmlns:sodipodi="http://sodipodi.sourceforge.net/DTD/sodipodi-0.dtd"
   xmlns:inkscape="http://www.inkscape.org/namespaces/inkscape"
   id="Capa_1"
   enable-background="new 0 0 512 512"
   height="512"
   viewBox="0 0 512 512"
   width="512"
   version="1.1"
   sodipodi:docname="route.svg"
   inkscape:version="1.0.2-2 (e86c870879, 2021-01-15)">
  <metadata
     id="metadata1505">
    <rdf:RDF>
      <cc:Work
         rdf:about="">
        <dc:format>image/svg+xml</dc:format>
        <dc:type
           rdf:resource="http://purl.org/dc/dcmitype/StillImage" />
      </cc:Work>
    </rdf:RDF>
  </metadata>
  <defs
     id="defs1503" />
  <sodipodi:namedview
     pagecolor="#ffffff"
     bordercolor="#666666"
     borderopacity="1"
     objecttolerance="10"
     gridtolerance="10"
     guidetolerance="10"
     inkscape:pageopacity="0"
     inkscape:pageshadow="2"
     inkscape:window-width="1366"
     inkscape:window-height="705"
     id="namedview1501"
     showgrid="false"
     inkscape:zoom="1.6601562"
     inkscape:cx="256"
     inkscape:cy="256"
     inkscape:window-x="-8"
     inkscape:window-y="105"
     inkscape:window-maximized="1"
     inkscape:current-layer="Capa_1" />
  <g
     id="g1498"
     style="fill:#ffffff;fill-opacity:1">
    <path
       d="m94.744 296.184c-8.817 5.23-14.744 14.842-14.744 25.816 0 16.542 13.458 30 30 30 13.036 0 24.152-8.361 28.28-20h77.72c16.542 0 30 13.458 30 30s-13.458 30-30 30h-120c-27.57 0-50 22.43-50 50s22.43 50 50 50h100c5.523 0 10-4.477 10-10s-4.477-10-10-10h-100c-16.542 0-30-13.458-30-30s13.458-30 30-30h120c27.57 0 50-22.43 50-50s-22.43-50-50-50h-77.72c-2.365-6.668-7.023-12.257-13.024-15.816l76.378-125.316c12.015-18.06 18.366-39.104 18.366-60.868 0-60.654-49.346-110-110-110s-110 49.346-110 110c0 21.764 6.351 42.808 18.366 60.868zm15.256 35.816c-5.514 0-10-4.486-10-10s4.486-10 10-10 10 4.486 10 10-4.486 10-10 10zm0-312c49.626 0 90 40.374 90 90 0 17.868-5.227 35.135-15.115 49.935-.077.115-.152.232-.224.351l-74.661 122.499s-74.808-122.735-74.885-122.85c-9.888-14.8-15.115-32.067-15.115-49.935 0-49.626 40.374-90 90-90z"
       id="path1488"
       style="fill:#ffffff;fill-opacity:1" />
    <path
       d="m110 160c27.57 0 50-22.43 50-50s-22.43-50-50-50-50 22.43-50 50 22.43 50 50 50zm0-80c16.542 0 30 13.458 30 30s-13.458 30-30 30-30-13.458-30-30 13.458-30 30-30z"
       id="path1490"
       style="fill:#ffffff;fill-opacity:1" />
    <path
       d="m402 166c-60.654 0-110 49.346-110 110 0 21.799 6.371 42.875 18.424 60.954l76.093 119.36c-5.892 3.565-10.461 9.101-12.796 15.686h-87.721c-5.523 0-10 4.477-10 10s4.477 10 10 10h87.72c4.128 11.639 15.243 20 28.28 20 16.542 0 30-13.458 30-30 0-10.881-5.823-20.426-14.516-25.686l76.093-119.36c12.052-18.079 18.423-39.155 18.423-60.954 0-60.654-49.346-110-110-110zm0 326c-5.514 0-10-4.486-10-10s4.486-10 10-10 10 4.486 10 10-4.486 10-10 10zm74.885-166.065c-.039.06-74.885 117.462-74.885 117.462s-74.846-117.403-74.885-117.462c-9.888-14.8-15.115-32.067-15.115-49.935 0-49.626 40.374-90 90-90s90 40.374 90 90c0 17.868-5.227 35.135-15.115 49.935z"
       id="path1492"
       style="fill:#ffffff;fill-opacity:1" />
    <path
       d="m402 226c-27.57 0-50 22.43-50 50s22.43 50 50 50 50-22.43 50-50-22.43-50-50-50zm0 80c-16.542 0-30-13.458-30-30s13.458-30 30-30 30 13.458 30 30-13.458 30-30 30z"
       id="path1494"
       style="fill:#ffffff;fill-opacity:1" />
    <circle
       cx="241"
       cy="482"
       r="10"
       id="circle1496"
       style="fill:#ffffff;fill-opacity:1" />
  </g>
</svg>
